<?xml version="1.0" encoding="utf-8"?>
<!-- Generator: Adobe Illustrator 24.2.0, SVG Export Plug-In . SVG Version: 6.00 Build 0)  -->
<svg version="1.1" id="Camada_1" xmlns="http://www.w3.org/2000/svg" xmlns:xlink="http://www.w3.org/1999/xlink" x="0px" y="0px"
	 viewBox="0 0 50 50" style="enable-background:new 0 0 50 50;" xml:space="preserve">
<style type="text/css">
	.st0{fill:#FFFFFF;}
	.st1{opacity:0.8;}
</style>
<g id="em-forma-de-u" transform="translate(-10 -8)">
	<path id="Caminho_4419" class="st0" d="M41.3,39.3c0,3.5-2.7,6.3-6.2,6.3c-3.5,0-6.3-2.7-6.3-6.2c0,0,0-0.1,0-0.1v-4.2H16.2v4.2
		C16.2,49.6,24.6,58,35,58c10.4,0,18.8-8.4,18.8-18.7c0,0,0,0,0,0v-4.2H41.3V39.3z M49.6,22.6h-4.2c-2.3,0-4.2,1.9-4.2,4.2v4.2h12.5
		v-4.2C53.7,24.5,51.9,22.6,49.6,22.6L49.6,22.6z M28.7,26.8c0-2.3-1.9-4.2-4.2-4.2h-4.2c-2.3,0-4.2,1.9-4.2,4.2v4.2h12.5L28.7,26.8
		z"/>
	<g id="Grupo_1828" transform="translate(11.448 8)" class="st1">
		<path id="Caminho_4420" class="st0" d="M14.1,5.7c-0.2-0.6-0.8-1-1.4-1h-1V1.6C11.6,0.7,10.9,0,10,0C9.1,0,8.4,0.7,8.4,1.6
			c0,0,0,0,0,0v3.1h-1c-0.9,0-1.6,0.7-1.6,1.6c0,0.4,0.2,0.8,0.5,1.1L8.9,10c0.6,0.6,1.6,0.6,2.2,0l2.6-2.6
			C14.2,6.9,14.3,6.2,14.1,5.7L14.1,5.7z"/>
		<path id="Caminho_4421" class="st0" d="M41.1,5.7c-0.2-0.6-0.8-1-1.4-1h-1V1.6C38.7,0.7,38,0,37.1,0c-0.9,0-1.6,0.7-1.6,1.6
			c0,0,0,0,0,0v3.1h-1c-0.9,0-1.6,0.7-1.6,1.6c0,0.4,0.2,0.8,0.5,1.1L36,10c0.6,0.6,1.6,0.6,2.2,0l2.6-2.6
			C41.2,6.9,41.4,6.2,41.1,5.7z"/>
	</g>
</g>
</svg>
