<?xml version="1.0" encoding="utf-8"?>
<!-- Generator: Adobe Illustrator 24.2.0, SVG Export Plug-In . SVG Version: 6.00 Build 0)  -->
<svg version="1.1" id="Camada_1" xmlns="http://www.w3.org/2000/svg" xmlns:xlink="http://www.w3.org/1999/xlink" x="0px" y="0px"
	 viewBox="0 0 50 50" style="enable-background:new 0 0 50 50;" xml:space="preserve">
<style type="text/css">
	.st0{fill:#FFFFFF;}
</style>
<path id="Polígono_9" class="st0" d="M23.5,2.3c0.3-0.8,1.1-1.2,1.9-0.9c0.4,0.2,0.8,0.5,0.9,0.9L31.5,17c0.2,0.6,0.8,1,1.4,1
	l15.6,0.3c0.8,0,1.5,0.7,1.5,1.6c0,0.5-0.2,0.9-0.6,1.2L37,30.3c-0.5,0.4-0.7,1.1-0.5,1.7L41,46.7c0.3,0.8-0.2,1.7-1,1.9
	c-0.5,0.1-0.9,0.1-1.3-0.2l-12.8-8.9c-0.5-0.4-1.2-0.4-1.8,0l-12.8,8.9c-0.7,0.5-1.7,0.3-2.1-0.4C9,47.7,8.9,47.2,9,46.7L13.6,32
	c0.2-0.6,0-1.3-0.5-1.7L0.6,21c-0.7-0.5-0.8-1.5-0.3-2.1c0.3-0.4,0.7-0.6,1.2-0.6L17.1,18c0.6,0,1.2-0.4,1.4-1L23.5,2.3z"/>
</svg>
