<svg id="Camada_1" data-name="Camada 1" xmlns="http://www.w3.org/2000/svg" viewBox="0 0 50 50"><defs><style>.cls-1{fill:#fff;}</style></defs><path class="cls-1" d="M49.73,46.12V3.91A3.25,3.25,0,0,0,46.67.54h-.11a3.22,3.22,0,0,0-3.08,3.33v.32L6.18,16a3.25,3.25,0,0,0-2.82-1.77A3.22,3.22,0,0,0,.27,17.57v14.8a3.22,3.22,0,0,0,.84,2.33,3.3,3.3,0,0,0,2.33,1A3.24,3.24,0,0,0,6.18,34l3.5,1.11a9,9,0,0,0-.16,1.62,8.77,8.77,0,0,0,8.29,9.1h.09a8.5,8.5,0,0,0,7.73-5.67l17.85,5.67V46a3.12,3.12,0,0,0,2.8,3.43l.33,0a3.13,3.13,0,0,0,3.11-2.84A3,3,0,0,0,49.73,46.12Zm-31.81-6a3.25,3.25,0,0,1-3.06-3.42h0l5.59,1.78A3.08,3.08,0,0,1,17.92,40.15Zm2.17-7.25V17.09L43.48,9.67V40.32Z"/></svg>